<svg width="668" height="720" viewBox="0 0 668 720" fill="none" xmlns="http://www.w3.org/2000/svg">
  <g clip-path="url(#clip0_79631_12)">
    <mask id="mask0_79631_12" style="mask-type:luminance" maskUnits="userSpaceOnUse" x="0" y="0" width="668" height="720">
      <path d="M668 0H0V720H668V0Z" fill="white" />
    </mask>
    <g mask="url(#mask0_79631_12)">
      <path fill-rule="evenodd" clip-rule="evenodd" d="M334.682 641.695C243.991 642.844 142.904 623.492 93.968 547.199C46.554 473.279 87.2757 381.299 114.021 297.677C139.304 218.626 163.935 133.327 238.219 96.1803C317.884 56.343 414.542 64.6213 491.953 108.687C568.144 152.057 617.055 231.267 628.178 318.159C638.751 400.763 603.322 479.751 547.348 541.454C491.971 602.499 417.145 640.65 334.682 641.695Z" fill="#9BDBFF" />
      <mask id="mask1_79631_12" style="mask-type:luminance" maskUnits="userSpaceOnUse" x="60" y="17" width="609" height="703">
        <path d="M669 17H60V720H669V17Z" fill="white" />
      </mask>
      <g mask="url(#mask1_79631_12)">
        <path d="M432.677 469.008C475.944 464.061 546.917 477.541 486.162 562.921C425.855 647.673 414.179 700.963 446.557 690.478C446.79 690.391 447.033 690.31 447.284 690.234C447.039 690.319 446.797 690.4 446.557 690.478C437.557 693.841 441.673 705.978 437.023 710.9C400.984 716.63 400.313 668.192 480.806 561.929C500.178 533.677 513.117 478.665 436.742 481.628L432.677 469.008Z" fill="#FFD500" />
        <path d="M427.839 452.945C476.727 441.778 530.059 437.389 475.722 538.571C421.942 638.716 478.99 631.224 515.256 614.581C515.599 614.403 515.972 614.23 516.376 614.061C516.005 614.235 515.631 614.409 515.256 614.581C506.326 619.194 517.142 626.522 512.744 632.437C472.315 643.493 407.042 640.124 469.377 538.205C486.516 504.821 519.059 451.05 431.707 464.474L427.839 452.945Z" fill="#005BBB" />
        <path d="M185.47 198.55C192.656 197.842 197.578 188.114 196.465 176.822C195.351 165.53 188.624 156.951 181.438 157.66C174.252 158.368 169.33 168.096 170.443 179.388C171.557 190.68 178.284 199.259 185.47 198.55Z" fill="#0D070C" />
        <path d="M324.678 157.549C318.1 160.528 308.973 154.564 304.292 144.229C299.61 133.893 301.147 123.1 307.724 120.12C314.301 117.141 323.428 123.105 328.11 133.44C332.791 143.776 331.255 154.57 324.678 157.549Z" fill="#0D070C" />
        <path fill-rule="evenodd" clip-rule="evenodd" d="M231.969 88.3394C207.094 95.327 161.951 119.282 180.382 159.202C192.737 185.963 186.278 198.024 179.296 211.061C173.258 222.333 166.83 234.336 171.837 257.204C176.384 277.974 185.842 290.826 195.282 303.653C208.253 321.28 221.191 338.861 221.306 376.881C221.466 429.431 260.094 568.545 279.389 631.534L370.944 607.001L231.969 88.3394ZM232.211 89.2415C257.247 82.8552 308.32 81.0296 312.319 124.817C314.986 154.024 330.398 162.473 346.52 171.311C360.609 179.034 375.241 187.055 382.379 209.49C389.058 230.479 384.324 245.967 379.579 261.493C373.449 281.551 367.299 301.671 385.716 333.794C411.853 379.384 447.957 519.175 462.741 583.371L371.186 607.903L232.211 89.2415Z" fill="white" />
        <path d="M234.06 305.943C220.768 317.248 197.083 311.235 181.158 292.511C165.234 273.788 163.101 249.444 176.394 238.139C189.686 226.834 213.371 232.847 229.295 251.571C245.22 270.294 247.353 294.638 234.06 305.943Z" fill="url(#paint0_radial_79631_12)" />
        <path d="M339.442 277.18C322.823 271.86 315.425 248.57 322.918 225.161C330.411 201.751 349.959 187.087 366.578 192.407C383.197 197.726 390.595 221.016 383.102 244.425C375.609 267.835 356.062 282.499 339.442 277.18Z" fill="url(#paint1_radial_79631_12)" />
        <path d="M435.705 476.832C377.172 523.231 287.572 536.157 250.692 530.628L256.95 552.252C341.794 570.362 414.963 523.429 441.884 498.278L435.705 476.832Z" fill="#005BBB" />
        <path d="M441.884 497.551C372.714 556.319 293.684 557.043 256.697 551.943L261.96 568.794C347.154 585.914 421.646 547.002 448.063 521.541L441.884 497.551Z" fill="#FFD500" />
        <path opacity="0.5" d="M312.23 141.548C315.427 142.057 318.667 138.398 319.467 133.375C320.267 128.352 318.324 123.867 315.128 123.358C311.931 122.849 308.691 126.508 307.891 131.531C307.091 136.554 309.034 141.039 312.23 141.548Z" fill="white" />
        <path opacity="0.5" d="M179.194 179.35C182.391 179.859 185.631 176.2 186.431 171.177C187.231 166.154 185.288 161.669 182.092 161.16C178.895 160.651 175.655 164.31 174.855 169.333C174.055 174.356 175.998 178.841 179.194 179.35Z" fill="white" />
        <path d="M354.873 567.081C194.646 598.273 229 815.428 266.205 920.107C453.599 981.407 803.303 1043.82 702.971 803.076C602.64 562.331 470.765 534.272 417.369 550.335L354.873 567.081Z" fill="white" />
        <path d="M208.679 205.277C188.97 143.269 246.386 116.651 246.339 117.495C311.241 117.495 320.296 173.069 320.296 181.653C320.296 205.277 362.24 214.921 357.422 240.83C352.604 266.739 365.571 314.539 365.493 350.331C365.446 372.265 359.096 381.97 353.703 385.453C355.285 385.044 354.647 385.302 353.089 385.825C351.67 386.631 350.34 387.009 349.236 387.074C350.67 386.619 352.075 386.166 353.089 385.825C353.292 385.71 353.497 385.586 353.703 385.453C351.623 385.99 345.707 387.677 332.999 391.425C297.16 401.995 282.216 355.243 236.594 309.46C190.973 263.677 233.314 282.786 208.679 205.277Z" fill="#FF6B0A" />
        <path d="M326.836 368.423C297.295 373.632 270.805 312.056 261.253 280.617C277.946 271.955 314.936 256.178 329.356 262.369C347.381 270.107 363.763 361.913 326.836 368.423Z" fill="#1F0C02" />
        <path d="M330.524 358.734C350.053 350.795 331.827 308.273 320.273 288.005L281.035 298.519C289.395 321.899 310.995 366.674 330.524 358.734Z" fill="#724B3B" />
        <path d="M324.046 343.505C327.418 339.405 309.597 297.271 300.265 276.717L291.891 279.948C301.205 302.842 320.674 347.604 324.046 343.505Z" fill="#6B3B28" />
        <path d="M243.001 259.404C251.367 212.691 233.838 192.735 224.028 188.596C243.605 140.425 284.803 154.426 302.955 167.447C290.83 214.201 299.267 177.136 330.949 235.839C356.294 282.801 327.757 308.719 310.321 315.808C284.396 316.471 234.636 306.118 243.001 259.404Z" fill="#ED5E00" />
        <path d="M339.021 256.111C276.016 205.705 254.23 260.784 251.212 294.624C258.806 306.124 281.49 326.439 311.482 315.696C341.474 304.953 342.338 271.496 339.021 256.111Z" fill="#FF8E3D" />
        <path d="M285.359 262.014C283.421 256.804 278.962 247.402 276.636 251.473C274.309 255.544 281.482 260.196 285.359 262.014Z" fill="#FD7411" />
        <path d="M295.531 259.307C293.757 254.039 291.301 243.927 295.672 245.625C300.042 247.323 297.399 255.454 295.531 259.307Z" fill="#FD7411" />
        <path d="M255.918 41.0159L272.275 85.7244C253.664 116.548 204.909 120.134 182.858 118.074L166.865 72.2755L255.918 41.0159Z" fill="#373500" />
        <path d="M272.275 85.7241C273.123 112.016 255.264 153.187 182.858 117.711L272.275 85.7241Z" fill="#373500" />
        <path d="M214.157 64.3276C238.836 55.8148 257.653 45.4652 256.186 41.2111C254.718 36.957 233.522 40.4094 208.843 48.9222C184.164 57.435 165.347 67.7846 166.814 72.0387C168.282 76.2928 189.478 72.8404 214.157 64.3276Z" fill="#373500" />
        <path d="M255.918 41.0159L272.275 85.7244C253.664 116.548 204.909 120.134 182.858 118.074L166.865 72.2755C166.865 72.2755 174.556 71.3111 179.223 69.7311C184.815 67.8379 192.672 62.8249 192.672 62.8249L231.201 94.0845V47.5586C231.201 47.5586 239.584 48.9458 244.65 47.5586C249.558 46.2146 255.918 41.0159 255.918 41.0159Z" fill="#4B4800" />
        <path d="M206 60.5696C206.279 60.621 206.509 60.6496 206.725 60.7159C208.523 61.2121 209.845 62.1563 210.85 63.9059C211.275 64.6471 211.629 65.4539 212.008 66.2176C212.341 66.8947 212.67 67.5586 213.015 68.2302C213.106 68.4032 213.112 68.4934 212.937 68.6095C212.557 68.8398 212.299 69.2131 212.297 69.726C212.288 70.1807 212.483 70.5212 212.809 70.7361C213.14 70.9641 213.502 70.9443 213.855 70.7891C214.029 70.705 214.115 70.5699 214.14 70.3407C214.353 68.592 214.225 66.8838 213.803 65.1938C213.449 63.797 212.863 62.5125 212.329 61.2187C212.027 60.4796 211.744 59.7162 211.419 58.9883C211.22 58.5257 211.066 58.0726 210.999 57.5614C210.933 57.0502 210.962 56.5392 211.11 56.0172C211.544 56.2267 211.897 56.5525 212.149 56.974C212.38 57.3747 212.574 57.8241 212.747 58.2529C212.934 58.7211 213.064 59.2175 213.223 59.6838C213.642 60.9247 214.05 62.1713 214.504 63.3954C215.273 65.43 216.433 67.1198 217.999 68.4272C218.203 68.608 218.39 68.5953 218.6 68.4623C219.137 68.1404 219.374 67.4514 219.155 66.859C218.949 66.3062 218.335 66.0136 217.78 66.251C217.578 66.3332 217.537 66.2599 217.492 66.0644C217.24 65.053 216.971 64.0341 216.707 63.0283C216.418 61.8797 216.071 60.7591 216.084 59.5417C216.103 57.9334 216.532 56.6549 217.336 55.3189C217.397 55.227 217.459 55.1351 217.546 55C217.59 55.1184 217.619 55.1974 217.648 55.2764C219.538 60.3704 221.35 65.2537 223.24 70.3477C223.347 70.6373 223.347 70.6373 223.103 70.7551C222.187 71.1984 221.259 71.6472 220.343 72.0905C220.181 72.169 220.131 72.2554 220.164 72.4565C220.415 73.9808 220.218 75.4421 219.532 76.799C219.391 77.0842 219.294 77.4109 219.174 77.7169C218.399 77.285 217.492 77.1646 216.753 76.5749C216.15 76.0907 215.601 75.5333 215.19 74.8316C215.092 74.6773 215.003 74.6583 214.864 74.7257C213.924 75.1801 212.996 75.629 212.057 76.0835C211.894 76.162 211.81 76.1562 211.732 75.9456C209.832 70.8253 208.006 65.9024 206.106 60.7822C206.074 60.767 206.054 60.7144 206 60.5696ZM207.89 62.4188C207.872 62.4432 207.837 62.46 207.819 62.4844C207.853 62.5766 207.887 62.6687 207.921 62.7608C208.834 65.2223 209.674 67.4862 210.588 69.9477C210.739 70.3557 210.739 70.3557 211.11 70.1762C211.249 70.1088 211.304 70.0357 211.28 69.8609C211.239 69.3066 211.381 68.8033 211.675 68.3813C211.799 68.1974 211.778 68.0677 211.686 67.8947C211.245 67.0369 210.787 66.1716 210.381 65.2971C209.948 64.3886 209.499 63.7676 208.773 63.1404C208.484 62.8767 208.186 62.6637 207.89 62.4188ZM217.462 57.835C217.439 57.8462 217.422 57.8386 217.399 57.8499C217.369 57.9888 217.338 58.1278 217.319 58.2611C217.16 59.2697 217.018 60.0679 217.249 61.0586C217.549 62.3106 217.873 63.5513 218.185 64.7977C218.22 64.9669 218.294 65.0553 218.467 65.0801C218.943 65.1451 219.353 65.3658 219.684 65.7799C219.837 65.97 219.984 65.9609 220.261 65.7492C220.432 65.62 220.304 65.4957 220.26 65.3772C219.332 62.8763 218.478 60.5728 217.545 58.0587C217.527 57.9741 217.498 57.8952 217.462 57.835ZM214.093 71.947C214.03 71.9619 213.955 71.9824 213.864 71.9954C213.065 72.1646 212.346 72.0315 211.796 71.2881C211.717 71.1865 211.652 71.1563 211.552 71.2199C211.471 71.2592 211.39 71.2985 211.308 71.3377C211.192 71.3938 211.166 71.4689 211.214 71.6006C211.581 72.5878 211.952 73.5881 212.33 74.5697C212.349 74.6224 212.486 74.696 212.532 74.6735C213.164 74.3837 213.801 74.0751 214.423 73.7589C214.469 73.7365 214.528 73.5995 214.52 73.5412C214.381 73.0186 214.242 72.496 214.093 71.947ZM219.057 69.5456C219.299 70.0496 219.542 70.5218 219.779 71.0127C219.844 71.1518 219.937 71.107 220.03 71.0621C220.621 70.7759 221.196 70.4822 221.793 70.2092C221.978 70.1195 222.007 70.0124 221.922 69.8206C221.583 68.9443 221.268 68.0568 220.936 67.1617C220.784 66.7537 220.784 66.7537 220.425 66.9276C220.321 66.9781 220.228 67.023 220.247 67.1846C220.326 68.0622 219.984 68.7247 219.417 69.2627C219.292 69.3695 219.158 69.45 219.057 69.5456ZM215.221 67.0232C215.272 68.1938 215.314 69.3381 215.157 70.5008C215.619 70.6033 216.053 70.7038 216.494 70.7856C216.555 70.8026 216.661 70.7202 216.704 70.6526C216.928 70.2962 217.118 69.9246 217.341 69.5681C217.41 69.4574 217.409 69.3803 217.307 69.2899C216.58 68.6946 215.967 67.9661 215.38 67.1945C215.321 67.1455 215.268 67.0778 215.221 67.0232ZM216.103 74.1572C216.31 74.8641 217.456 75.9245 217.902 75.9104C217.909 75.8916 217.916 75.8729 217.916 75.8729C217.662 75.1884 217.42 74.4983 217.159 73.8326C217.139 73.78 217.029 73.7403 216.978 73.7496C216.678 73.8635 216.393 74.017 216.103 74.1572ZM218.886 75.4654C219.263 74.8951 219.32 73.2061 219.044 72.7189C218.789 72.8423 218.51 72.977 218.255 73.1004C218.104 73.1734 218.082 73.2616 218.141 73.4196C218.346 73.9724 218.551 74.5253 218.756 75.0781C218.789 75.2022 218.833 75.3206 218.886 75.4654ZM216.123 72.921C216.274 72.8481 216.441 72.7827 216.582 72.6834C216.628 72.661 216.682 72.5108 216.656 72.4769C216.371 71.9314 215.861 71.5883 215.325 71.6923C215.211 71.7165 215.163 71.7709 215.184 71.9006C215.269 72.2784 215.366 72.6506 215.456 73.0416C215.494 73.1789 215.583 73.1979 215.687 73.1474C215.821 73.0669 215.972 72.9939 216.123 72.921ZM218.257 71.8886C218.396 71.8213 218.524 71.7595 218.663 71.6922C218.807 71.638 218.864 71.533 218.777 71.3731C218.62 71.0608 218.463 70.7486 218.295 70.442C218.213 70.2952 218.129 70.2894 218.009 70.4094C217.622 70.7674 217.428 71.4978 217.607 72.0168C217.627 72.0694 217.742 72.1223 217.793 72.113C217.96 72.0476 218.106 71.9615 218.257 71.8886Z" fill="#FFD500" />
        <path d="M434.5 471C477.766 466.053 546.917 477.541 486.162 562.921C425.854 647.673 414.179 700.963 446.556 690.478C446.79 690.391 447.032 690.31 447.284 690.234C447.039 690.319 446.796 690.4 446.556 690.478C437.556 693.841 441.672 705.978 437.023 710.9C400.984 716.63 400.312 668.192 480.806 561.929C500.178 533.677 513.875 478.537 437.5 481.5L434.5 471Z" fill="#FFD500" />
        <path d="M429.5 455C478.388 443.833 530.059 437.389 475.722 538.571C421.942 638.716 478.99 631.224 515.255 614.581C515.599 614.403 515.972 614.23 516.376 614.061C516.005 614.235 515.631 614.409 515.255 614.581C506.326 619.194 517.142 626.522 512.743 632.437C472.315 643.493 407.042 640.124 469.377 538.205C486.515 504.821 516 449.5 433 462.5L429.5 455Z" fill="#005BBB" />
      </g>
    </g>
  </g>
  <defs>
    <radialGradient id="paint0_radial_79631_12" cx="0" cy="0" r="1" gradientUnits="userSpaceOnUse" gradientTransform="translate(205.227 272.041) rotate(49.619) scale(44.505 31.5961)">
      <stop stop-color="#FFBBBB" />
      <stop offset="1" stop-color="#FFBBBB" stop-opacity="0" />
    </radialGradient>
    <radialGradient id="paint1_radial_79631_12" cx="0" cy="0" r="1" gradientUnits="userSpaceOnUse" gradientTransform="translate(353.01 234.793) rotate(107.75) scale(44.505 31.5961)">
      <stop stop-color="#FFBBBB" />
      <stop offset="1" stop-color="#FFBBBB" stop-opacity="0" />
    </radialGradient>
    <clipPath id="clip0_79631_12">
      <rect width="668" height="720" fill="white" />
    </clipPath>
  </defs>
</svg>